HIERARCHY
ROOT Hips
{
	OFFSET 0.00000 0.00000 0.00000
	CHANNELS 6 Xposition Yposition Zposition Yrotation Zrotation Xrotation 
	JOINT Lumbar
	{
		OFFSET 0 0 0
		CHANNELS 3 Zrotation Xrotation Yrotation
		JOINT Neck
		{
			OFFSET 0.00 0.2701 0.00
			CHANNELS 3 Zrotation Xrotation Yrotation
			End Site
			{
				OFFSET 0.00 0.1379 0.00
			}
		}
		JOINT RightShoulder
		{
			OFFSET 0.0119 0.2289 0.1181
			CHANNELS 3 Zrotation Xrotation Yrotation
			JOINT RightElbow
			{
				OFFSET 0.00 -0.1475 0.00
				CHANNELS 2 Zrotation Yrotation
				JOINT RightWrist
				{
					OFFSET 0.00 -0.1605 0.00
					CHANNELS 2 Zrotation Xrotation
					End Site
					{
						OFFSET 0.0040 -0.1068 0.0006
					}
				}
			}
		}
		JOINT LeftShoulder
		{
			OFFSET 0.0119 0.2289 -0.1181
			CHANNELS 3 Zrotation Xrotation Yrotation
			JOINT LeftElbow
			{
				OFFSET 0.00 -0.1475 0.00
				CHANNELS 2 Zrotation Yrotation
				JOINT LeftWrist
				{
					OFFSET 0.00 -0.1605 0.00
					CHANNELS 2 Zrotation Xrotation
					End Site
					{
						OFFSET 0.0040 -0.1068 -0.0006
					}
				}
			}
		}
	}
	JOINT RightHip
	{
		OFFSET 0.0316 -0.0424 0.0458
		CHANNELS 3 Zrotation Xrotation Yrotation
		JOINT RightKnee
		{
			OFFSET 0.00 -0.2438 0.00
			CHANNELS 1 Zrotation
			JOINT RightAnkle
			{
				OFFSET 0.00 -0.2449 0.00
				CHANNELS 3 Zrotation Xrotation Yrotation
				End Site
				{
					OFFSET 0.1237 -0.0542 0.0051
				}
			}
		}
	}
	JOINT LeftHip
	{
		OFFSET 0.0316 -0.0424 -0.0458
		CHANNELS 3 Zrotation Xrotation Yrotation
		JOINT LeftKnee
		{
			OFFSET 0.00 -0.2438 0.00
			CHANNELS 1 Zrotation
			JOINT LeftAnkle
			{
				OFFSET 0.00 -0.2449 0.00
				CHANNELS 3 Zrotation Xrotation Yrotation
				End Site
				{
					OFFSET 0.1237 -0.0542 -0.0051
				}
			}
		}
	}
}
MOTION
Frames: 30
Frame Time: 0.02
0.0202 -0.00023 0.02108 -182.46303 -40.20257 -5.52173 41.4265 -0.30434 17.25914 -2.54491 12.57734 -2.11908 52.38523 -17.3568 52.96 63.55738 92.50394 18.39923 -1.02118 22.29068 35.14917 -29.66713 112.54043 -83.0761 -1.62618 -3.1863 47.92043 -5.54883 -12.80913 -22.05056 -7.29775 -2.44554 -3.46525 52.305 9.78083 7.18945 -27.65409 -6.89473 1.54898 3.022
0.02045 -0.0002 0.02102 -182.45222 -40.25608 -5.57975 41.40266 -0.28683 17.1755 -2.40279 12.66401 -2.11909 55.92018 -17.38107 53.59952 57.94545 91.83336 15.7598 -1.37032 22.2645 34.62345 -30.82125 112.45218 -83.14721 -1.6102 -3.25736 47.97627 -5.49122 -12.81541 -21.97811 -7.30851 -2.46082 -3.47159 52.42698 9.82936 7.19271 -27.65445 -6.90556 1.54581 3.0193
0.02063 -0.00019 0.021 -182.25604 -40.30348 -5.63709 41.38266 -0.27369 17.05987 -2.24777 12.69393 -2.11909 59.06063 -17.95616 54.05109 51.63158 91.41985 13.32581 -1.78934 22.44623 34.0266 -32.09869 112.28906 -83.23137 -1.52124 -3.31622 47.97567 -5.43433 -12.87234 -21.89317 -7.3219 -2.49211 -3.48541 52.5605 9.87649 7.18642 -27.65879 -6.92014 1.53112 3.01035
0.02082 -0.00017 0.02097 -182.13459 -40.35162 -5.69447 41.36228 -0.25841 16.95758 -2.1035 12.74698 -2.11909 62.30046 -18.32137 54.57883 45.71764 90.97995 10.87986 -2.12578 22.53134 33.46236 -33.31247 112.15681 -83.30825 -1.45002 -3.39816 47.99549 -5.37676 -12.90747 -21.81529 -7.33408 -2.51678 -3.49625 52.68569 9.92209 7.17459 -27.66164 -6.93264 1.5218 3.00436
0.02109 -0.00014 0.02094 -182.05047 -40.40933 -5.75354 41.33643 -0.24296 16.85783 -1.93679 12.81088 -2.11909 65.92103 -18.53173 55.15174 39.39492 90.1651 8.06099 -2.66875 22.63079 32.89304 -34.55967 112.03492 -83.37562 -1.44639 -3.41159 48.03792 -5.31972 -12.93589 -21.73028 -7.34677 -2.53929 -3.50565 52.82629 9.97595 7.19999 -27.6631 -6.94685 1.51207 2.99795
0.02119 -0.00014 0.02091 -181.84601 -40.44516 -5.80857 41.32265 -0.22939 16.74636 -1.81494 12.83853 -2.11909 68.63024 -19.1879 55.58311 33.79151 90.18729 6.08177 -2.80663 22.74617 32.31987 -35.76392 111.87619 -83.48404 -1.28235 -3.55861 48.01952 -5.26197 -12.98974 -21.65769 -7.35888 -2.56992 -3.51971 52.93622 10.01293 7.14882 -27.66842 -6.95835 1.50026 2.99085
0.02088 -0.00019 0.02086 -181.35058 -40.4238 -5.85439 41.34291 -0.21782 16.60759 -1.81439 12.78352 -2.11909 69.01319 -20.95812 55.67114 30.24669 92.48152 6.33642 -1.74255 22.87311 31.74203 -36.8448 111.61717 -83.54307 -0.7112 -4.12817 47.8488 -5.20401 -13.11626 -21.62185 -7.36838 -2.61835 -3.54457 52.96369 9.99955 6.86942 -27.68339 -6.96125 1.48717 2.98416
0.0204 -0.00027 0.02081 -180.74185 -40.38028 -5.89573 41.37495 -0.20846 16.45879 -1.86084 12.69322 -2.11909 68.46801 -23.15222 55.61942 27.48238 95.59987 7.43908 -0.28142 23.00456 31.16578 -37.87299 111.3271 -83.66734 0.02135 -4.8232 47.6186 -5.14523 -13.26442 -21.59928 -7.37718 -2.67437 -3.57384 52.95875 9.96994 6.51698 -27.7021 -6.9613 1.47212 2.97688
0.01999 -0.00034 0.02076 -180.18755 -40.34554 -5.93797 41.40036 -0.19957 16.317 -1.88957 12.61706 -2.11909 68.28404 -25.13912 55.63333 24.42682 98.33044 8.17986 0.95466 23.12184 30.59607 -38.90959 111.06241 -83.8736 0.69315 -5.42714 47.41415 -5.08559 -13.39316 -21.57114 -7.38652 -2.72735 -3.60123 52.965 9.95066 6.21132 -27.71913 -6.96277 1.4568 2.9693
0.01961 -0.00041 0.02072 -179.61301 -40.3157 -5.98518 41.43091 -0.18463 16.16452 -1.90189 12.54769 -2.11909 68.35151 -27.20879 55.64299 21.05439 101.14407 8.82832 2.37821 23.29924 29.99118 -40.01865 110.74716 -83.63184 1.3183 -6.17361 47.21241 -5.03072 -13.56344 -21.54038 -7.39514 -2.77942 -3.62847 52.98637 9.91936 5.84911 -27.73625 -6.96391 1.44573 2.96378
0.01912 -0.00049 0.02066 -179.05783 -40.27089 -6.02072 41.45399 -0.18269 16.03133 -1.96042 12.4556 -2.1191 67.66887 -29.19724 55.61674 18.56604 103.95441 9.86761 3.50455 23.34774 29.46339 -40.95942 110.53126 -84.30987 2.07297 -6.65429 46.99259 -4.96628 -13.65251 -21.51867 -7.40491 -2.83467 -3.65683 52.96873 9.90861 5.58597 -27.75397 -6.96494 1.4258 2.95405
0.01839 -0.00058 0.02055 -178.57092 -40.18669 -6.02745 41.44923 -0.21683 15.96324 -2.12909 12.3179 -2.1191 65.24108 -30.87135 55.65149 18.07984 106.74917 11.77969 3.73031 23.05586 29.12717 -41.47579 110.59375 -87.76109 3.18826 -6.36104 46.72952 -4.87087 -13.50504 -21.51639 -7.41929 -2.89928 -3.68837 52.84803 9.96448 5.62777 -27.77278 -6.96689 1.37937 2.93166
0.01755 -0.00067 0.02042 -178.11114 -40.08887 -6.02218 41.43727 -0.26382 15.91353 -2.3436 12.1575 -2.1191 62.07783 -32.44207 55.63621 18.50377 109.47619 14.05333 3.64091 22.63045 28.87283 -41.81919 110.7582 -92.09106 4.41973 -5.79809 46.45212 -4.76677 -13.27628 -21.52323 -7.43459 -2.96627 -3.7206 52.68968 10.04063 5.7697 -27.79195 -6.96872 1.3246 2.90532
0.01677 -0.00077 0.0203 -177.64788 -39.99961 -6.02082 41.43155 -0.30445 15.84919 -2.54136 12.00192 -2.1191 59.18308 -34.05048 55.55725 18.68093 112.10275 16.1615 3.68418 22.25352 28.59504 -42.2228 110.87885 -95.8527 5.5702 -5.36433 46.18665 -4.66974 -13.08895 -21.52749 -7.44863 -3.03053 -3.75174 52.55069 10.10352 5.85648 -27.81073 -6.97024 1.27534 2.88162
0.01595 -0.00086 0.02019 -177.14163 -39.89959 -6.02568 41.41402 -0.34739 15.81018 -2.72439 11.86732 -2.1191 56.51667 -35.7201 55.82222 18.19161 115.30519 18.30979 3.78368 21.92625 28.25893 -42.70105 110.98823 -100.32203 6.84667 -4.90563 45.89593 -4.5594 -12.88303 -21.52571 -7.46622 -3.10213 -3.78643 52.40123 10.18246 5.97983 -27.83068 -6.97322 1.21875 2.85433
0.01518 -0.00096 0.02005 -176.73481 -39.81898 -6.01496 41.41884 -0.38849 15.72391 -2.94728 11.68531 -2.1191 53.23289 -37.22353 55.38075 19.28253 117.29027 20.44236 3.68872 21.46644 28.06401 -42.98503 111.145 -103.53522 7.88457 -4.4349 45.65553 -4.47487 -12.69681 -21.53837 -7.47661 -3.15875 -3.81371 52.26485 10.23355 6.05373 -27.84811 -6.97317 1.17548 2.83357
0.01454 -0.00104 0.01983 -176.58041 -39.79599 -5.963 41.49028 -0.42156 15.49435 -3.27802 11.36769 -2.1191 48.25308 -38.36263 52.82857 24.63099 115.84774 22.49707 3.10886 20.64997 28.23646 -42.76094 111.41405 -102.97652 8.24791 -3.98165 45.55521 -4.46249 -12.57946 -21.58995 -7.46729 -3.17472 -3.82122 52.17609 10.19813 5.94937 -27.85946 -6.96471 1.17105 2.83184
0.01396 -0.00112 0.01958 -176.5287 -39.79305 -5.89606 41.58379 -0.45226 15.21824 -3.64517 11.00532 -2.11911 42.71564 -39.32234 49.59893 31.51094 113.19351 24.50821 2.3468 19.70926 28.54842 -42.35021 111.7262 -101.1389 8.36401 -3.52786 45.50693 -4.47654 -12.48538 -21.65545 -7.45065 -3.17526 -3.82109 52.10167 10.13485 5.79493 -27.86806 -6.95325 1.18035 2.83682
0.01337 -0.0012 0.01934 -176.44064 -39.78051 -5.83673 41.66509 -0.48391 14.96886 -3.98975 10.67024 -2.11911 37.54845 -40.31723 46.79452 37.61164 111.14424 26.50068 1.68268 18.84035 28.79841 -42.03425 112.0147 -99.94505 8.58413 -3.08369 45.43651 -4.47938 -12.38447 -21.7137 -7.4371 -3.18196 -3.82388 52.01915 10.08758 5.67563 -27.87725 -6.94323 1.18332 2.83867
0.01273 -0.00129 0.0191 -176.30959 -39.76927 -5.77344 41.75541 -0.5166 14.69635 -4.36219 10.30467 -2.11911 31.85509 -41.50673 43.49736 44.10342 108.86462 28.67234 0.9442 17.90101 29.04611 -41.67002 112.32413 -98.52016 8.84341 -2.59049 45.35858 -4.47884 -12.26609 -21.7762 -7.42453 -3.19233 -3.82899 51.94138 10.02723 5.50931 -27.88924 -6.93288 1.18622 2.84065
0.01219 -0.00136 0.01887 -176.29252 -39.76063 -5.71517 41.83221 -0.5463 14.46101 -4.68366 9.99269 -2.11911 27.14328 -42.24675 41.0606 50.12312 106.77696 30.45109 0.32104 17.08186 29.32954 -41.36452 112.5986 -97.25837 8.96111 -2.20294 45.3096 -4.49134 -12.18919 -21.833 -7.40824 -3.19138 -3.82749 51.85835 9.98679 5.42547 -27.89475 -6.92249 1.19283 2.84411
0.01186 -0.00134 0.01866 -176.56185 -39.75123 -5.67305 41.86691 -0.56891 14.33733 -4.86348 9.83617 -2.11911 25.21378 -41.81359 41.21568 54.53586 105.52198 31.19006 0.06508 16.61503 29.68619 -41.2654 112.76783 -96.78135 8.74558 -2.10754 45.32143 -4.53682 -12.23511 -21.87086 -7.38272 -3.16263 -3.80909 51.75129 10.01223 5.60115 -27.88271 -6.91284 1.20476 2.84917
0.01161 -0.0013 0.01847 -176.94268 -39.74437 -5.63682 41.88713 -0.58841 14.25297 -4.98902 9.73586 -2.11912 24.30786 -40.93074 42.25093 58.40089 104.50119 31.52624 -0.06767 16.27601 30.07174 -41.23299 112.89946 -96.50474 8.39614 -2.1202 45.3618 -4.594 -12.32037 -21.90238 -7.35383 -3.12304 -3.78438 51.63979 10.05787 5.85761 -27.86429 -6.90324 1.22027 2.85566
0.01134 -0.00127 0.01827 -177.27466 -39.73843 -5.59881 41.91361 -0.60886 14.15215 -5.1339 9.61222 -2.11912 22.97864 -40.23784 42.85053 62.46747 103.36933 32.0229 -0.25812 15.88562 30.43817 -41.17185 113.04668 -96.11716 8.10904 -2.08396 45.39345 -4.64353 -12.3781 -21.93664 -7.32698 -3.08865 -3.76291 51.53443 10.09143 6.06353 -27.84899 -6.89351 1.23526 2.86212
0.01103 -0.00124 0.01807 -177.60318 -39.72448 -5.55641 41.94232 -0.63116 14.04398 -5.30253 9.47773 -2.11912 21.45003 -39.59746 43.57694 66.79532 102.21444 32.61564 -0.44828 15.46227 30.83559 -41.09732 113.20208 -95.76723 7.80661 -2.04481 45.40926 -4.70347 -12.47486 -21.9721 -7.29777 -3.05267 -3.73966 51.41204 10.13604 6.32539 -27.83264 -6.88406 1.24614 2.86628
0.01083 -0.00121 0.01787 -177.96324 -39.7275 -5.52484 41.96251 -0.64891 13.96082 -5.40839 9.3797 -2.11912 20.59047 -38.7458 44.25711 70.41971 101.17932 32.91053 -0.60691 15.13981 31.17252 -41.06905 113.33057 -95.40586 7.50819 -2.03972 45.4638 -4.74462 -12.5025 -22.00322 -7.27273 -3.01748 -3.71862 51.32402 10.1631 6.49152 -27.81702 -6.87415 1.26612 2.87538
0.01094 -0.00118 0.01763 -178.38939 -39.77709 -5.52113 41.96398 -0.65486 13.9394 -5.35325 9.36955 -2.11912 21.30396 -37.40008 44.59736 72.30305 100.42056 32.50319 -0.71108 15.06308 31.3428 -41.15257 113.39686 -94.94518 7.24928 -2.08162 45.62122 -4.72661 -12.30105 -22.02525 -7.26052 -2.98879 -3.70621 51.33084 10.1341 6.36525 -27.80486 -6.86241 1.31148 2.89848
0.01117 -0.00114 0.0174 -178.8416 -39.84345 -5.52833 41.95703 -0.65635 13.94157 -5.23684 9.39422 -2.11912 22.66245 -35.86242 44.86348 73.47622 99.78005 31.80634 -0.78629 15.08421 31.44905 -41.28107 113.43661 -94.47654 7.00146 -2.15695 45.81581 -4.6897 -12.03263 -22.04284 -7.25262 -2.96118 -3.69616 51.37253 10.08737 6.14159 -27.79371 -6.85033 1.36556 2.92632
0.01134 -0.0011 0.01716 -179.27742 -39.90185 -5.53102 41.95305 -0.65989 13.93169 -5.14888 9.40249 -2.11912 23.74473 -34.42661 45.16498 74.9234 99.08926 31.22771 -0.87226 15.06245 31.5791 -41.38995 113.48635 -94.02937 6.75213 -2.23179 45.99125 -4.66451 -11.81515 -22.06151 -7.24239 -2.93189 -3.6843 51.39901 10.05062 5.96829 -27.78218 -6.83878 1.41483 2.9515
0.01152 -0.00106 0.01692 -179.737 -39.96195 -5.53197 41.95226 -0.66322 13.92887 -5.05634 9.415 -2.11913 24.79246 -32.91163 45.48981 76.56115 98.39024 30.69045 -0.96443 15.03914 31.73287 -41.49831 113.54347 -93.51042 6.48142 -2.25244 46.17733 -4.62758 -11.51777 -22.08386 -7.23338 -2.90666 -3.67502 51.42281 10.00645 5.77225 -27.77008 -6.82563 1.46788 2.9789
